<?xml version="1.0" encoding="utf-8"?>
<svg version="1.1" xmlns:xlink="http://www.w3.org/1999/xlink" width="41px" height="41px" xmlns="http://www.w3.org/2000/svg">
  <g>
    <path d="M 28.4354838709677 15.8709677419355  C 28.4354838709677 11.4899193548387  24.8810483870968 7.93548387096774  20.5 7.93548387096774  C 16.1189516129032 7.93548387096774  12.5645161290323 11.4899193548387  12.5645161290323 15.8709677419355  C 12.5645161290323 20.2520161290323  16.1189516129032 23.8064516129032  20.5 23.8064516129032  C 24.8810483870968 23.8064516129032  28.4354838709677 20.2520161290323  28.4354838709677 15.8709677419355  Z M 24.4677419354839 15.8709677419355  C 24.4677419354839 18.0614919354839  22.6905241935484 19.8387096774194  20.5 19.8387096774194  C 18.3094758064516 19.8387096774194  16.5322580645161 18.0614919354839  16.5322580645161 15.8709677419355  C 16.5322580645161 13.6804435483871  18.3094758064516 11.9032258064516  20.5 11.9032258064516  C 22.6905241935484 11.9032258064516  24.4677419354839 13.6804435483871  24.4677419354839 15.8709677419355  Z M 41 20.5  C 41 9.17540322580645  31.8245967741935 0  20.5 0  C 9.17540322580645 0  0 9.17540322580645  0 20.5  C 0 31.8245967741935  9.17540322580645 41  20.5 41  C 31.8245967741935 41  41 31.8245967741935  41 20.5  Z M 31.2542338709677 33.0314516129032  C 28.3610887096774 35.5195564516129  24.6082661290323 37.0322580645161  20.5 37.0322580645161  C 16.3917338709677 37.0322580645161  12.6389112903226 35.5195564516129  9.74576612903226 33.0314516129032  C 10.9774193548387 31.1302419354839  13.0852822580645 29.8407258064516  15.4989919354839 29.7663306451613  C 17.2183467741935 30.2953629032258  18.8550403225806 30.5598790322581  20.5 30.5598790322581  C 22.1449596774194 30.5598790322581  23.7816532258064 30.3036290322581  25.5010080645161 29.7663306451613  C 27.9147177419355 29.8489919354839  30.0225806451613 31.1302419354839  31.2542338709677 33.0314516129032  Z M 37.0322580645161 20.5  C 37.0322580645161 24.0709677419355  35.8832661290323 27.3774193548387  33.9489919354839 30.0804435483871  C 31.9320564516129 27.4848790322581  28.8157258064516 25.7903225806452  25.2612903225806 25.7903225806452  C 24.4181451612903 25.7903225806452  23.1120967741935 26.5838709677419  20.5 26.5838709677419  C 17.8961693548387 26.5838709677419  16.5818548387097 25.7903225806452  15.7387096774194 25.7903225806452  C 12.1925403225806 25.7903225806452  9.07620967741936 27.4848790322581  7.05100806451613 30.0804435483871  C 5.11673387096774 27.3774193548387  3.96774193548387 24.0709677419355  3.96774193548387 20.5  C 3.96774193548387 11.3824596774194  11.3824596774194 3.96774193548387  20.5 3.96774193548387  C 29.6175403225806 3.96774193548387  37.0322580645161 11.3824596774194  37.0322580645161 20.5  Z " fill-rule="nonzero" fill="#000000" stroke="none" />
  </g>
</svg>