<?xml version="1.0" encoding="utf-8"?>
<svg version="1.1" xmlns:xlink="http://www.w3.org/1999/xlink" width="414px" height="226px" xmlns="http://www.w3.org/2000/svg">
  <defs>
    <filter x="470px" y="542px" width="414px" height="226px" filterUnits="userSpaceOnUse" id="filter343">
      <feOffset dx="3" dy="3" in="SourceAlpha" result="shadowOffsetInner" />
      <feGaussianBlur stdDeviation="2.5" in="shadowOffsetInner" result="shadowGaussian" />
      <feComposite in2="shadowGaussian" operator="atop" in="SourceAlpha" result="shadowComposite" />
      <feColorMatrix type="matrix" values="0 0 0 0 0  0 0 0 0 0  0 0 0 0 0  0 0 0 0.349019607843137 0  " in="shadowComposite" />
    </filter>
    <g id="widget344">
      <path d="M 472 544  L 876 544  L 876 760  L 472 760  L 472 544  " fill-rule="nonzero" fill="#cccccc" stroke="none" />
      <path d="M 487 559  L 861 559  L 861 745  L 487 745  L 487 559  " fill-rule="nonzero" fill="#ffffff" stroke="none" />
      <path d="M 698.28 608.8  C 689.208 608.8  682.08 601.672  682.08 592.6  C 682.08 583.528  689.208 576.4  698.28 576.4  C 707.352 576.4  714.48 583.528  714.48 592.6  C 714.48 601.672  707.352 608.8  698.28 608.8  " fill-rule="nonzero" fill="#cccccc" stroke="none" />
      <path d="M 493 740  L 493 643.75  L 583.75 600  L 710.8 683.861386138614  L 783.4 626.25  L 856 683.861386138614  L 856 740  L 493 740  " fill-rule="nonzero" fill="#169bd5" stroke="none" />
    </g>
  </defs>
  <g transform="matrix(1 0 0 1 -470 -542 )">
    <use xlink:href="#widget344" filter="url(#filter343)" />
    <use xlink:href="#widget344" />
  </g>
</svg>