<?xml version="1.0" encoding="utf-8"?>
<svg version="1.1" xmlns:xlink="http://www.w3.org/1999/xlink" width="20px" height="22px" xmlns="http://www.w3.org/2000/svg">
  <defs>
    <filter x="565px" y="422px" width="20px" height="22px" filterUnits="userSpaceOnUse" id="filter365">
      <feOffset dx="3" dy="3" in="SourceAlpha" result="shadowOffsetInner" />
      <feGaussianBlur stdDeviation="2.5" in="shadowOffsetInner" result="shadowGaussian" />
      <feComposite in2="shadowGaussian" operator="atop" in="SourceAlpha" result="shadowComposite" />
      <feColorMatrix type="matrix" values="0 0 0 0 0  0 0 0 0 0  0 0 0 0 0  0 0 0 0.349019607843137 0  " in="shadowComposite" />
    </filter>
    <g id="widget366">
      <path d="M 2.14285714285714 3  C 2.14285714285714 4.65703125  3.421875 6  5 6  C 6.578125 6  7.85714285714286 4.65703125  7.85714285714286 3  C 7.85714285714286 1.34296875  6.578125 0  5 0  C 3.421875 0  2.14285714285714 1.34296875  2.14285714285714 3  Z M 10 9.9  C 10 8.1609375  8.65625 6.75  7 6.75  L 6.62723214285714 6.75  C 6.13169642857143 6.9890625  5.58035714285714 7.125  5 7.125  C 4.41964285714286 7.125  3.87053571428571 6.9890625  3.37276785714286 6.75  L 3 6.75  C 1.34375 6.75  0 8.1609375  0 9.9  L 0 10.875  C 0 11.49609375  0.479910714285714 12  1.07142857142857 12  L 8.92857142857143 12  C 9.52008928571429 12  10 11.49609375  10 10.875  L 10 9.9  Z " fill-rule="nonzero" fill="#5a3dfc" stroke="none" transform="matrix(1 0 0 1 567 424 )" />
    </g>
  </defs>
  <g transform="matrix(1 0 0 1 -565 -422 )">
    <use xlink:href="#widget366" filter="url(#filter365)" />
    <use xlink:href="#widget366" />
  </g>
</svg>