<?xml version="1.0" encoding="utf-8"?>
<svg version="1.1" xmlns:xlink="http://www.w3.org/1999/xlink" width="15px" height="14px" xmlns="http://www.w3.org/2000/svg">
  <g transform="matrix(1 0 0 1 -675 -35 )">
    <path d="M 1.15384615384615 10.75  L 1.15384615384615 13  L 3.75 13  L 3.75 10.75  L 1.15384615384615 10.75  Z M 4.32692307692308 10.75  L 4.32692307692308 13  L 7.21153846153846 13  L 7.21153846153846 10.75  L 4.32692307692308 10.75  Z M 1.15384615384615 7.75  L 1.15384615384615 10.25  L 3.75 10.25  L 3.75 7.75  L 1.15384615384615 7.75  Z M 4.32692307692308 7.75  L 4.32692307692308 10.25  L 7.21153846153846 10.25  L 7.21153846153846 7.75  L 4.32692307692308 7.75  Z M 1.15384615384615 5  L 1.15384615384615 7.25  L 3.75 7.25  L 3.75 5  L 1.15384615384615 5  Z M 7.78846153846154 10.75  L 7.78846153846154 13  L 10.6730769230769 13  L 10.6730769230769 10.75  L 7.78846153846154 10.75  Z M 4.32692307692308 5  L 4.32692307692308 7.25  L 7.21153846153846 7.25  L 7.21153846153846 5  L 4.32692307692308 5  Z M 11.25 10.75  L 11.25 13  L 13.8461538461538 13  L 13.8461538461538 10.75  L 11.25 10.75  Z M 7.78846153846154 7.75  L 7.78846153846154 10.25  L 10.6730769230769 10.25  L 10.6730769230769 7.75  L 7.78846153846154 7.75  Z M 4.52974759615385 3.67578125  C 4.58683894230769 3.62630208333333  4.61538461538462 3.56770833333333  4.61538461538462 3.5  L 4.61538461538462 1.25  C 4.61538461538462 1.18229166666667  4.58683894230769 1.12369791666667  4.52974759615385 1.07421875  C 4.47265625 1.02473958333333  4.40504807692308 1  4.32692307692308 1  L 3.75 1  C 3.671875 1  3.60426682692308 1.02473958333333  3.54717548076923 1.07421875  C 3.49008413461538 1.12369791666667  3.46153846153846 1.18229166666667  3.46153846153846 1.25  L 3.46153846153846 3.5  C 3.46153846153846 3.56770833333333  3.49008413461538 3.62630208333333  3.54717548076923 3.67578125  C 3.60426682692308 3.72526041666667  3.671875 3.75  3.75 3.75  L 4.32692307692308 3.75  C 4.40504807692308 3.75  4.47265625 3.72526041666667  4.52974759615385 3.67578125  Z M 11.25 7.75  L 11.25 10.25  L 13.8461538461538 10.25  L 13.8461538461538 7.75  L 11.25 7.75  Z M 7.78846153846154 5  L 7.78846153846154 7.25  L 10.6730769230769 7.25  L 10.6730769230769 5  L 7.78846153846154 5  Z M 11.25 5  L 11.25 7.25  L 13.8461538461538 7.25  L 13.8461538461538 5  L 11.25 5  Z M 11.4528245192308 3.67578125  C 11.5099158653846 3.62630208333333  11.5384615384615 3.56770833333333  11.5384615384615 3.5  L 11.5384615384615 1.25  C 11.5384615384615 1.18229166666667  11.5099158653846 1.12369791666667  11.4528245192308 1.07421875  C 11.3957331730769 1.02473958333333  11.328125 1  11.25 1  L 10.6730769230769 1  C 10.5949519230769 1  10.52734375 1.02473958333333  10.4702524038462 1.07421875  C 10.4131610576923 1.12369791666667  10.3846153846154 1.18229166666667  10.3846153846154 1.25  L 10.3846153846154 3.5  C 10.3846153846154 3.56770833333333  10.4131610576923 3.62630208333333  10.4702524038462 3.67578125  C 10.52734375 3.72526041666667  10.5949519230769 3.75  10.6730769230769 3.75  L 11.25 3.75  C 11.328125 3.75  11.3957331730769 3.72526041666667  11.4528245192308 3.67578125  Z M 14.6574519230769 2.296875  C 14.8858173076923 2.49479166666667  15 2.72916666666667  15 3  L 15 13  C 15 13.2708333333333  14.8858173076923 13.5052083333333  14.6574519230769 13.703125  C 14.4290865384615 13.9010416666667  14.1586538461538 14  13.8461538461538 14  L 1.15384615384615 14  C 0.841346153846154 14  0.570913461538462 13.9010416666667  0.342548076923077 13.703125  C 0.114182692307692 13.5052083333333  0 13.2708333333333  0 13  L 0 3  C 0 2.72916666666667  0.114182692307692 2.49479166666667  0.342548076923077 2.296875  C 0.570913461538462 2.09895833333333  0.841346153846154 2  1.15384615384615 2  L 2.30769230769231 2  L 2.30769230769231 1.25  C 2.30769230769231 0.906250000000001  2.44891826923077 0.611979166666666  2.73137019230769 0.3671875  C 3.01382211538462 0.122395833333333  3.35336538461538 0  3.75 0  L 4.32692307692308 0  C 4.72355769230769 0  5.06310096153846 0.122395833333333  5.34555288461538 0.3671875  C 5.62800480769231 0.611979166666666  5.76923076923077 0.906250000000001  5.76923076923077 1.25  L 5.76923076923077 2  L 9.23076923076923 2  L 9.23076923076923 1.25  C 9.23076923076923 0.906250000000001  9.37199519230769 0.611979166666666  9.65444711538462 0.3671875  C 9.93689903846154 0.122395833333333  10.2764423076923 0  10.6730769230769 0  L 11.25 0  C 11.6466346153846 0  11.9861778846154 0.122395833333333  12.2686298076923 0.3671875  C 12.5510817307692 0.611979166666666  12.6923076923077 0.906250000000001  12.6923076923077 1.25  L 12.6923076923077 2  L 13.8461538461538 2  C 14.1586538461538 2  14.4290865384615 2.09895833333333  14.6574519230769 2.296875  Z " fill-rule="nonzero" fill="#5a3dfc" stroke="none" transform="matrix(1 0 0 1 675 35 )" />
  </g>
</svg>