<?xml version="1.0" encoding="utf-8"?>
<svg version="1.1" xmlns:xlink="http://www.w3.org/1999/xlink" width="17px" height="14px" xmlns="http://www.w3.org/2000/svg">
  <g transform="matrix(1 0 0 1 -688 -83 )">
    <path d="M 17 11.5  C 17 11.225  16.7609375 11  16.46875 11  L 5.3125 11  L 5.3125 10.5  C 5.3125 10.225  5.0734375 10  4.78125 10  L 3.71875 10  C 3.4265625 10  3.1875 10.225  3.1875 10.5  L 3.1875 11  L 0.53125 11  C 0.2390625 11  0 11.225  0 11.5  L 0 12.5  C 0 12.775  0.2390625 13  0.53125 13  L 3.1875 13  L 3.1875 13.5  C 3.1875 13.775  3.4265625 14  3.71875 14  L 4.78125 14  C 5.0734375 14  5.3125 13.775  5.3125 13.5  L 5.3125 13  L 16.46875 13  C 16.7609375 13  17 12.775  17 12.5  L 17 11.5  Z M 17 6.5  C 17 6.225  16.7609375 6  16.46875 6  L 13.8125 6  L 13.8125 5.5  C 13.8125 5.225  13.5734375 5  13.28125 5  L 12.21875 5  C 11.9265625 5  11.6875 5.225  11.6875 5.5  L 11.6875 6  L 0.53125 6  C 0.2390625 6  0 6.225  0 6.5  L 0 7.5  C 0 7.775  0.2390625 8  0.53125 8  L 11.6875 8  L 11.6875 8.5  C 11.6875 8.775  11.9265625 9  12.21875 9  L 13.28125 9  C 13.5734375 9  13.8125 8.775  13.8125 8.5  L 13.8125 8  L 16.46875 8  C 16.7609375 8  17 7.775  17 7.5  L 17 6.5  Z M 17 1.5  C 17 1.225  16.7609375 1  16.46875 1  L 9.5625 1  L 9.5625 0.5  C 9.5625 0.225  9.3234375 0  9.03125 0  L 7.96875 0  C 7.6765625 0  7.4375 0.225  7.4375 0.5  L 7.4375 1  L 0.53125 1  C 0.2390625 1  0 1.225  0 1.5  L 0 2.5  C 0 2.775  0.2390625 3  0.53125 3  L 7.4375 3  L 7.4375 3.5  C 7.4375 3.775  7.6765625 4  7.96875 4  L 9.03125 4  C 9.3234375 4  9.5625 3.775  9.5625 3.5  L 9.5625 3  L 16.46875 3  C 16.7609375 3  17 2.775  17 2.5  L 17 1.5  Z " fill-rule="nonzero" fill="#000000" stroke="none" transform="matrix(1 0 0 1 688 83 )" />
  </g>
</svg>