<?xml version="1.0" encoding="utf-8"?>
<svg version="1.1" xmlns:xlink="http://www.w3.org/1999/xlink" width="48px" height="43px" xmlns="http://www.w3.org/2000/svg">
  <defs>
    <filter x="820px" y="558px" width="48px" height="43px" filterUnits="userSpaceOnUse" id="filter351">
      <feOffset dx="3" dy="3" in="SourceAlpha" result="shadowOffsetInner" />
      <feGaussianBlur stdDeviation="2.5" in="shadowOffsetInner" result="shadowGaussian" />
      <feComposite in2="shadowGaussian" operator="atop" in="SourceAlpha" result="shadowComposite" />
      <feColorMatrix type="matrix" values="0 0 0 0 0  0 0 0 0 0  0 0 0 0 0  0 0 0 0.349019607843137 0  " in="shadowComposite" />
    </filter>
    <g id="widget352">
      <path d="M 31.2991071428571 17.703125  C 33.9568452380952 15.0104166666667  35.2857142857143 12.4609375  35.2857142857143 10.0546875  C 35.2857142857143 8.89453125  35.1337425595238 7.87044270833333  34.8297991071429 6.982421875  C 34.5258556547619 6.09440104166666  34.1370907738095 5.38899739583333  33.6635044642857 4.8662109375  C 33.1899181547619 4.34342447916666  32.6138392857143 3.91731770833333  31.9352678571429 3.587890625  C 31.2566964285714 3.25846354166666  30.5922619047619 3.03645833333333  29.9419642857143 2.921875  C 29.2916666666667 2.80729166666666  28.5989583333333 2.75  27.8638392857143 2.75  C 27.1287202380952 2.75  26.3370535714286 2.9326171875  25.4888392857143 3.2978515625  C 24.640625 3.6630859375  23.8595610119048 4.12141927083333  23.1456473214286 4.6728515625  C 22.4317336309524 5.22428385416666  21.8203125 5.73990885416666  21.3113839285714 6.2197265625  C 20.8024553571429 6.69954427083333  20.3783482142857 7.13997395833333  20.0390625 7.541015625  C 19.7845982142857 7.85611979166666  19.4382440476191 8.013671875  19 8.013671875  C 18.561755952381 8.013671875  18.2154017857143 7.85611979166666  17.9609375 7.541015625  C 17.6216517857143 7.13997395833333  17.1975446428571 6.69954427083333  16.6886160714286 6.2197265625  C 16.1796875 5.73990885416666  15.5682663690476 5.22428385416666  14.8543526785714 4.6728515625  C 14.1404389880952 4.12141927083333  13.359375 3.6630859375  12.5111607142857 3.2978515625  C 11.6629464285714 2.9326171875  10.8712797619048 2.75  10.1361607142857 2.75  C 9.40104166666667 2.75  8.70833333333334 2.80729166666666  8.05803571428571 2.921875  C 7.4077380952381 3.03645833333333  6.74330357142857 3.25846354166666  6.06473214285714 3.587890625  C 5.38616071428571 3.91731770833333  4.81008184523809 4.34342447916666  4.33649553571429 4.8662109375  C 3.86290922619048 5.38899739583333  3.4741443452381 6.09440104166666  3.17020089285714 6.982421875  C 2.86625744047619 7.87044270833333  2.71428571428571 8.89453125  2.71428571428571 10.0546875  C 2.71428571428571 12.4609375  4.03608630952381 15.0032552083333  6.6796875 17.681640625  L 19 29.712890625  L 31.2991071428571 17.703125  Z M 35.3069196428571 2.6640625  C 37.1023065476191 4.44010416666666  38 6.90364583333333  38 10.0546875  C 38 13.2200520833333  36.3813244047619 16.4427083333333  33.1439732142857 19.72265625  L 19.9330357142857 32.61328125  C 19.6785714285714 32.87109375  19.3675595238095 33  19 33  C 18.6324404761905 33  18.3214285714286 32.87109375  18.0669642857143 32.61328125  L 4.83482142857143 19.6796875  C 4.69345238095238 19.5651041666667  4.49906994047619 19.37890625  4.25167410714286 19.12109375  C 4.00427827380952 18.86328125  3.61197916666667 18.3942057291667  3.07477678571429 17.7138671875  C 2.5375744047619 17.0335286458333  2.05691964285714 16.3352864583333  1.6328125 15.619140625  C 1.20870535714286 14.9029947916667  0.830543154761905 14.0364583333333  0.498325892857143 13.01953125  C 0.166108630952381 12.0026041666667  0 11.0143229166667  0 10.0546875  C 0 6.90364583333333  0.897693452380952 4.44010416666666  2.69308035714286 2.6640625  C 4.48846726190476 0.888020833333333  6.96949404761905 0  10.1361607142857 0  C 11.0126488095238 0  11.9068080357143 0.153971354166665  12.8186383928571 0.461914062500001  C 13.73046875 0.76985677083333  14.5786830357143 1.18522135416666  15.36328125 1.7080078125  C 16.1478794642857 2.23079427083333  16.8229166666667 2.72135416666666  17.3883928571429 3.1796875  C 17.9538690476191 3.63802083333333  18.4910714285714 4.125  19 4.640625  C 19.5089285714286 4.125  20.046130952381 3.63802083333333  20.6116071428571 3.1796875  C 21.1770833333333 2.72135416666666  21.8521205357143 2.23079427083333  22.63671875 1.7080078125  C 23.4213169642857 1.18522135416666  24.26953125 0.76985677083333  25.1813616071429 0.461914062500001  C 26.0931919642857 0.153971354166665  26.9873511904762 0  27.8638392857143 0  C 31.030505952381 0  33.5115327380952 0.888020833333333  35.3069196428571 2.6640625  Z " fill-rule="nonzero" fill="#5a3dfc" stroke="none" transform="matrix(1 0 0 1 822 560 )" />
    </g>
  </defs>
  <g transform="matrix(1 0 0 1 -820 -558 )">
    <use xlink:href="#widget352" filter="url(#filter351)" />
    <use xlink:href="#widget352" />
  </g>
</svg>