<?xml version="1.0" encoding="utf-8"?>
<svg version="1.1" xmlns:xlink="http://www.w3.org/1999/xlink" width="31px" height="40px" xmlns="http://www.w3.org/2000/svg">
  <g transform="matrix(1 0 0 1 -1229 -1963 )">
    <path d="M 30.46735395189 19.0781563126253  C 30.8224513172967 19.3453573814295  31 19.6526386105544  31 20  C 31 20.3473613894456  30.8224513172967 20.6546426185705  30.46735395189 20.9218436873747  L 5.64604810996564 39.5991983967936  C 5.29095074455899 39.8663994655979  4.88258877434135 40  4.42096219931271 40  C 3.95933562428408 40  3.55097365406644 39.8663994655979  3.19587628865979 39.5991983967936  L 0.532646048109966 37.5951903807615  C 0.177548682703322 37.3279893119572  0 37.0207080828323  0 36.6733466933868  C 0 36.3259853039412  0.177548682703322 36.0187040748163  0.532646048109966 35.751503006012  L 21.4656357388316 20  L 0.532646048109966 4.24849699398798  C 0.177548682703322 3.9812959251837  0 3.67401469605878  0 3.32665330661323  C 0 2.97929191716766  0.177548682703322 2.67201068804275  0.532646048109966 2.40480961923847  L 3.19587628865979 0.400801603206413  C 3.55097365406644 0.133600534402136  3.95933562428408 0  4.42096219931271 0  C 4.88258877434135 0  5.29095074455899 0.133600534402136  5.64604810996564 0.400801603206413  L 30.46735395189 19.0781563126253  Z " fill-rule="nonzero" fill="#8c8c8c" stroke="none" transform="matrix(1 0 0 1 1229 1963 )" />
  </g>
</svg>