<?xml version="1.0" encoding="utf-8"?>
<svg version="1.1" xmlns:xlink="http://www.w3.org/1999/xlink" width="17px" height="23px" xmlns="http://www.w3.org/2000/svg">
  <g transform="matrix(1 0 0 1 -66 -336 )">
    <path d="M 16.4392361111111 0.4267578125  C 16.8130787037037 0.71126302083333  17 1.04817708333333  17 1.4375  L 17 21.5625  C 17 21.9518229166667  16.8130787037037 22.2887369791667  16.4392361111111 22.5732421875  C 16.0653935185185 22.8577473958333  15.6226851851852 23  15.1111111111111 23  C 14.599537037037 23  14.1568287037037 22.8577473958333  13.7829861111111 22.5732421875  L 0.560763888888889 12.5107421875  C 0.186921296296297 12.2262369791667  0 11.8893229166667  0 11.5  C 0 11.1106770833333  0.186921296296297 10.7737630208333  0.560763888888889 10.4892578125  L 13.7829861111111 0.4267578125  C 14.1568287037037 0.142252604166665  14.599537037037 0  15.1111111111111 0  C 15.6226851851852 0  16.0653935185185 0.142252604166665  16.4392361111111 0.4267578125  Z " fill-rule="nonzero" fill="#8c8c8c" stroke="none" transform="matrix(1 0 0 1 66 336 )" />
  </g>
</svg>