<?xml version="1.0" encoding="utf-8"?>
<svg version="1.1" xmlns:xlink="http://www.w3.org/1999/xlink" width="23px" height="21px" xmlns="http://www.w3.org/2000/svg">
  <g transform="matrix(1 0 0 1 -1134 -1221 )">
    <path d="M 18.9441964285714 11.265625  C 20.5528273809524 9.55208333333333  21.3571428571429 7.9296875  21.3571428571429 6.3984375  C 21.3571428571429 5.66015625  21.2651599702381 5.00846354166667  21.0811941964286 4.443359375  C 20.897228422619 3.87825520833333  20.6619233630952 3.42936197916667  20.3752790178571 3.0966796875  C 20.0886346726191 2.76399739583333  19.7399553571429 2.49283854166667  19.3292410714286 2.283203125  C 18.9185267857143 2.07356770833333  18.516369047619 1.93229166666667  18.1227678571429 1.859375  C 17.7291666666667 1.78645833333333  17.3098958333333 1.75  16.8649553571429 1.75  C 16.4200148809524 1.75  15.9408482142857 1.8662109375  15.4274553571429 2.0986328125  C 14.9140625 2.3310546875  14.4413132440476 2.62272135416666  14.0092075892857 2.9736328125  C 13.5771019345238 3.32454427083333  13.20703125 3.65266927083333  12.8989955357143 3.9580078125  C 12.5909598214286 4.26334635416667  12.3342633928571 4.54361979166667  12.12890625 4.798828125  C 11.9748883928571 4.99934895833333  11.7652529761905 5.099609375  11.5 5.099609375  C 11.2347470238095 5.099609375  11.0251116071429 4.99934895833333  10.87109375 4.798828125  C 10.6657366071429 4.54361979166667  10.4090401785714 4.26334635416667  10.1010044642857 3.9580078125  C 9.79296875 3.65266927083333  9.42289806547619 3.32454427083333  8.99079241071428 2.9736328125  C 8.55868675595238 2.62272135416666  8.0859375 2.3310546875  7.57254464285714 2.0986328125  C 7.05915178571429 1.8662109375  6.57998511904762 1.75  6.13504464285714 1.75  C 5.69010416666667 1.75  5.27083333333333 1.78645833333333  4.87723214285714 1.859375  C 4.48363095238095 1.93229166666667  4.08147321428571 2.07356770833333  3.67075892857143 2.283203125  C 3.26004464285714 2.49283854166667  2.91136532738095 2.76399739583333  2.62472098214286 3.0966796875  C 2.33807663690476 3.42936197916667  2.10277157738095 3.87825520833333  1.91880580357143 4.443359375  C 1.73484002976191 5.00846354166667  1.64285714285714 5.66015625  1.64285714285714 6.3984375  C 1.64285714285714 7.9296875  2.4428943452381 9.54752604166667  4.04296875 11.251953125  L 11.5 18.908203125  L 18.9441964285714 11.265625  Z M 21.3699776785714 1.6953125  C 22.4566592261905 2.82552083333333  23 4.39322916666667  23 6.3984375  C 23 8.41276041666667  22.020275297619 10.4635416666667  20.0608258928571 12.55078125  L 12.0647321428571 20.75390625  C 11.9107142857143 20.91796875  11.7224702380952 21  11.5 21  C 11.2775297619048 21  11.0892857142857 20.91796875  10.9352678571429 20.75390625  L 2.92633928571429 12.5234375  C 2.84077380952381 12.4505208333333  2.72312127976191 12.33203125  2.57338169642857 12.16796875  C 2.42364211309524 12.00390625  2.18619791666667 11.7054036458333  1.86104910714286 11.2724609375  C 1.53590029761905 10.8395182291667  1.24497767857143 10.3951822916667  0.98828125 9.939453125  C 0.731584821428571 9.48372395833333  0.502697172619048 8.93229166666667  0.301618303571429 8.28515625  C 0.10053943452381 7.63802083333333  0 7.00911458333333  0 6.3984375  C 0 4.39322916666667  0.543340773809524 2.82552083333333  1.63002232142857 1.6953125  C 2.71670386904762 0.565104166666666  4.21837797619048 0  6.13504464285714 0  C 6.66555059523809 0  7.20675223214286 0.097981770833332  7.75864955357143 0.293945312500001  C 8.310546875 0.489908854166665  8.82393973214286 0.754231770833332  9.298828125 1.0869140625  C 9.77371651785714 1.41959635416667  10.1822916666667 1.73177083333333  10.5245535714286 2.0234375  C 10.8668154761905 2.31510416666666  11.1919642857143 2.625  11.5 2.953125  C 11.8080357142857 2.625  12.1331845238095 2.31510416666666  12.4754464285714 2.0234375  C 12.8177083333333 1.73177083333333  13.2262834821429 1.41959635416667  13.701171875 1.0869140625  C 14.1760602678571 0.754231770833332  14.689453125 0.489908854166665  15.2413504464286 0.293945312500001  C 15.7932477678571 0.097981770833332  16.3344494047619 0  16.8649553571429 0  C 18.7816220238095 0  20.2832961309524 0.565104166666666  21.3699776785714 1.6953125  Z " fill-rule="nonzero" fill="#f92a2a" stroke="none" transform="matrix(1 0 0 1 1134 1221 )" />
  </g>
</svg>