<?xml version="1.0" encoding="utf-8"?>
<svg version="1.1" xmlns:xlink="http://www.w3.org/1999/xlink" width="31px" height="31px" xmlns="http://www.w3.org/2000/svg">
  <defs>
    <filter x="1101px" y="150px" width="31px" height="31px" filterUnits="userSpaceOnUse" id="filter293">
      <feOffset dx="5" dy="5" in="SourceAlpha" result="shadowOffsetInner" />
      <feGaussianBlur stdDeviation="2.5" in="shadowOffsetInner" result="shadowGaussian" />
      <feComposite in2="shadowGaussian" operator="atop" in="SourceAlpha" result="shadowComposite" />
      <feColorMatrix type="matrix" values="0 0 0 0 0  0 0 0 0 0  0 0 0 0 0  0 0 0 0.349019607843137 0  " in="shadowComposite" />
    </filter>
    <g id="widget294">
      <path d="M 20.7087890625 19.5140350877193  C 21.0943359375 19.1292397660819  21.0943359375 18.5070175438596  20.712890625 18.1222222222222  L 16.6236328125 14.0409356725146  C 16.4390625 13.8567251461988  16.1888671875 13.7543859649123  15.9263671875 13.7543859649123  L 15.2578125 13.7543859649123  C 16.38984375 12.3093567251462  17.0625 10.4918128654971  17.0625 8.51461988304094  C 17.0625 3.81111111111111  13.2439453125 0  8.53125 0  C 3.8185546875 0  0 3.81111111111111  0 8.51461988304094  C 0 13.2181286549708  3.8185546875 17.0292397660819  8.53125 17.0292397660819  C 10.5123046875 17.0292397660819  12.3333984375 16.3578947368421  13.78125 15.2280701754386  L 13.78125 15.8953216374269  C 13.78125 16.1573099415205  13.8837890625 16.4070175438596  14.068359375 16.5912280701754  L 18.1576171875 20.672514619883  C 18.5431640625 21.0573099415205  19.1666015625 21.0573099415205  19.548046875 20.672514619883  L 20.7087890625 19.5140350877193  Z M 13.78125 8.51461988304094  C 13.78125 11.4087719298246  11.43515625 13.7543859649123  8.53125 13.7543859649123  C 5.6314453125 13.7543859649123  3.28125 11.412865497076  3.28125 8.51461988304094  C 3.28125 5.62046783625731  5.62734375 3.27485380116959  8.53125 3.27485380116959  C 11.4310546875 3.27485380116959  13.78125 5.61637426900585  13.78125 8.51461988304094  Z " fill-rule="nonzero" fill="#ffffff" stroke="none" fill-opacity="0.996078431372549" transform="matrix(1 0 0 1 1101 150 )" />
    </g>
  </defs>
  <g transform="matrix(1 0 0 1 -1101 -150 )">
    <use xlink:href="#widget294" filter="url(#filter293)" />
    <use xlink:href="#widget294" />
  </g>
</svg>