<?xml version="1.0" encoding="utf-8"?>
<svg version="1.1" xmlns:xlink="http://www.w3.org/1999/xlink" width="85px" height="67px" xmlns="http://www.w3.org/2000/svg">
  <g transform="matrix(1 0 0 1 -634 -440 )">
    <path d="M 70.9440769693325 36.7833806818182  C 71.6255762677891 37.0371685606061  71.9663259170174 37.4971590909091  72 38.1633522727273  L 72 53.2954545454545  C 71.9663259170174 57.0705492424242  70.5266586490279 60.2984138257576  67.6473241130487 62.9790482954545  C 64.7679895770696 65.6596827651515  61.3008618961716 67  57.2459410703548 67  L 14.7203848466627 67  C 10.6654640208459 67  7.19833633994789 65.6596827651515  4.31900180396873 62.9790482954545  C 1.43966726798958 60.2984138257576  0 57.0705492424242  0 53.2954545454545  L 0 13.7045454545455  C 0 9.92945075757575  1.43966726798958 6.70158617424242  4.31900180396873 4.02095170454546  C 7.19833633994789 1.34031723484848  10.6654640208459 0  14.7203848466627 0  L 57.2459410703548 0  C 59.3926638604931 0  61.3860493084787 0.396543560606057  63.2260974143115 1.18963068181818  C 63.7372218881539 1.41169507575757  64.0438965724594 1.77651515151515  64.1461214672279 2.28409090909091  C 64.2483463619964 2.82339015151515  64.0950090198437 3.28338068181818  63.6861094407697 3.6640625  L 61.1815995189417 5.99573863636364  C 60.8408498697134 6.31297348484848  60.4489877731008 6.47159090909091  60.006013229104 6.47159090909091  C 59.9037883343355 6.47159090909091  59.7504509921828 6.43986742424242  59.5460012026458 6.37642045454546  C 58.7622770094207 6.18607954545454  57.995590298657 6.09090909090909  57.2459410703548 6  L 14.7203848466627 6  C 12.4714371617559 6.09090909090909  10.546201643616 6.83641098484848  8.94467829224293 8.32741477272727  C 7.34315494086991 9.81841856060606  6.5423932651834 11.6107954545455  7 13.7045454545455  L 7 53.2954545454545  C 6.5423932651834 55.3892045454545  7.34315494086991 57.1815814393939  8.94467829224293 58.6725852272727  C 10.546201643616 60.1635890151515  12.4714371617559 60.9090909090909  14.7203848466627 61  L 57.2459410703548 61  C 59.4948887552616 60.9090909090909  61.4201242734015 60.1635890151515  63.0216476247745 58.6725852272727  C 64.6231709761475 57.1815814393939  65.423932651834 55.3892045454545  65 53.2954545454545  L 65 41.2088068181818  C 65.423932651834 40.7964015151515  65.5772699939868 40.4474431818182  65.8839446782923 40.1619318181818  L 69.1551413108839 37.1164772727273  C 69.4958909601122 36.7992424242424  69.8877530567248 36.640625  70.3307276007216 36.640625  C 70.5351773902586 36.640625  70.7396271797955 36.6882102272727  70.9440769693325 36.7833806818182  Z M 85 12.1818181818182  C 85 13.2286931818182  84.591100420926 14.1328125  83.7733012627781 14.8941761363636  L 42.1677690920024 53.6285511363636  C 41.3499699338545 54.3899147727273  40.3788334335538 54.7705965909091  39.2543595911004 54.7705965909091  C 38.129885748647 54.7705965909091  37.1587492483464 54.3899147727273  36.3409500901984 53.6285511363636  L 14.3625977149729 33.1669034090909  C 13.544798556825 32.4055397727273  13.1358989777511 31.5014204545455  13.1358989777511 30.4545454545455  C 13.1358989777511 29.4076704545455  13.544798556825 28.5035511363636  14.3625977149729 27.7421875  L 19.9849669272399 22.5078125  C 20.8027660853879 21.7464488636364  21.7739025856885 21.3657670454545  22.8983764281419 21.3657670454545  C 24.0228502705953 21.3657670454545  24.993986770896 21.7464488636364  25.8117859290439 22.5078125  L 39.2543595911004 35.0227272727273  L 72.3241130487072 4.23508522727273  C 73.1419122068551 3.47372159090909  74.1130487071557 3.09303977272727  75.2375225496091 3.09303977272727  C 76.3619963920625 3.09303977272727  77.3331328923632 3.47372159090909  78.1509320505111 4.23508522727273  L 83.7733012627781 9.46946022727273  C 84.591100420926 10.2308238636364  85 11.1349431818182  85 12.1818181818182  Z " fill-rule="nonzero" fill="#53cc35" stroke="none" transform="matrix(1 0 0 1 634 440 )" />
  </g>
</svg>